<?xml version="1.0" encoding="UTF-8"?>
<svg version="1.1" xmlns="http://www.w3.org/2000/svg" width="498" height="527">
<path d="M0 0 C0.87726746 -0.00570007 1.75453491 -0.01140015 2.65838623 -0.01727295 C4.51410738 -0.02668534 6.36984495 -0.03324191 8.22558594 -0.03710938 C10.99706357 -0.04670258 13.76776203 -0.0777143 16.5390625 -0.109375 C32.87443818 -0.2083314 48.39724901 1.69167233 64.046875 6.515625 C65.06354248 6.82266357 66.08020996 7.12970215 67.12768555 7.44604492 C113.58768628 21.73375995 153.42623385 53.39806872 176.796875 96.203125 C177.13525391 96.81945801 177.47363281 97.43579102 177.82226562 98.07080078 C192.8440978 125.80948993 200.2739811 155.8277606 200.109375 187.328125 C200.10688751 188.09380798 200.10440002 188.85949097 200.10183716 189.64837646 C199.85597625 238.76563866 180.90464538 283.9424159 146.796875 319.203125 C146.32282227 319.70295898 145.84876953 320.20279297 145.36035156 320.71777344 C115.84093167 351.81471744 71.41438815 373.88568431 28.15234375 375.40966797 C23.87545146 375.51170846 19.60023495 375.52945429 15.32226562 375.51879883 C12.69618541 375.51565411 10.07125334 375.53913752 7.4453125 375.56445312 C-8.79780516 375.62683062 -24.69603494 373.80872538 -40.265625 369.015625 C-41.26674316 368.71374268 -42.26786133 368.41186035 -43.29931641 368.10083008 C-91.81972901 353.0572655 -131.23267119 319.8760884 -155.203125 275.203125 C-174.93242135 237.15476509 -182.17708048 192.38481344 -173.203125 150.203125 C-172.92106201 148.85661865 -172.92106201 148.85661865 -172.63330078 147.48291016 C-165.03474825 112.53682249 -147.97409546 81.81142404 -123.203125 56.203125 C-122.72907227 55.70329102 -122.25501953 55.20345703 -121.76660156 54.68847656 C-93.90028892 25.33298221 -55.95207891 7.45339458 -16.203125 1.203125 C-15.1510083 1.0280542 -14.0988916 0.8529834 -13.01489258 0.67260742 C-8.65178372 0.13521817 -4.39103965 0.02267577 0 0 Z " fill="#FDFDFD" transform="translate(237.203125,75.796875)"/>
<path d="M0 0 C1.33611328 0.32291016 1.33611328 0.32291016 2.69921875 0.65234375 C18.14396817 4.45757187 32.04475497 15.22823219 40.4375 28.5625 C42.65204025 32.40832709 44.6576557 36.30618231 46.5625 40.3125 C56.30007392 60.23905855 85.48248151 72.722481 105 81 C122.32169752 89.14790555 122.32169752 89.14790555 128 94 C128 94.66 128 95.32 128 96 C119.11063387 96.32901012 110.85187904 95.39798665 102.125 93.75 C100.88991699 93.52401123 99.65483398 93.29802246 98.38232422 93.06518555 C91.09990241 91.69714503 84.08379281 90.05583945 77.015625 87.8359375 C72.52809537 86.59198499 67.99143354 86.07845753 63.37890625 85.49609375 C59.11283019 84.86974501 55.02602107 83.81782695 50.859375 82.7265625 C41.99308664 80.47365316 33.12948041 79.39930133 24 79 C23.1534082 78.96068359 22.30681641 78.92136719 21.43457031 78.88085938 C4.74511103 77.89398864 4.74511103 77.89398864 -9.5859375 85.38671875 C-15.69270011 91.82882382 -16.53702679 99.36210038 -16.40405273 107.81323242 C-15.57961264 127.79499639 -2.11237703 143.76152902 10.625 158.25 C14.10743157 162.28228919 17.04548016 166.57417694 20 171 C20.93648011 172.35357077 21.87408092 173.70636653 22.8125 175.05859375 C29.42901097 184.67661373 35.18646582 194.36185636 40 205 C40.46921875 206.03511719 40.9384375 207.07023438 41.421875 208.13671875 C42.6896533 211.06747786 43.8632661 214.01607352 45 217 C45.4434375 218.13566406 45.886875 219.27132812 46.34375 220.44140625 C53.02278963 238.7505178 53.17519628 258.19873003 50.75 277.375 C50.58624878 278.72996582 50.58624878 278.72996582 50.41918945 280.11230469 C49.54284927 286.37598208 48.22632914 292.48835438 45 298 C42.07884062 299.80876742 39.89489708 299.95984003 36.51904297 300.4621582 C34.34201975 300.79488903 32.16752638 301.14535791 29.99804688 301.52416992 C20.48250725 303.08922578 11.1514538 303.33965018 1.52539062 303.31567383 C-1.10068959 303.31252911 -3.72562166 303.33601252 -6.3515625 303.36132812 C-22.59468016 303.42370562 -38.49290994 301.60560038 -54.0625 296.8125 C-55.56417725 296.35967651 -55.56417725 296.35967651 -57.09619141 295.89770508 C-102.19649137 281.91453307 -138.86987108 252.41457864 -163.8046875 212.5390625 C-165 210 -165 210 -164 207 C-163.3709375 207.89460937 -162.741875 208.78921875 -162.09375 209.7109375 C-152.22226779 224.02263497 -152.22226779 224.02263497 -140.03125 236.30078125 C-138 238 -138 238 -136.09375 239.85546875 C-120.57901413 254.80332004 -99.11442065 263.43614292 -77.65234375 263.2109375 C-64.89474023 262.47413473 -52.28304565 257.28134433 -42.48828125 249.1015625 C-41 248 -41 248 -39 248 C-39 247.34 -39 246.68 -39 246 C-38.29875 245.319375 -37.5975 244.63875 -36.875 243.9375 C-26.68143737 234.03189112 -20.9162346 219.07320011 -20.56958008 204.99731445 C-20.53950871 194.3904162 -22.27161168 185.88192892 -26 176 C-26.46480452 174.43941279 -26.92429347 172.87721701 -27.375 171.3125 C-30.29528995 162.71477485 -35.39631479 154.90159429 -40.1875 147.25 C-43.28005546 142.29237738 -45.78835701 137.39400711 -48 132 C-48.68603834 130.52015485 -49.37356581 129.04099922 -50.0625 127.5625 C-55.23201947 115.69702815 -58.26127125 102.1741653 -54.5 89.4375 C-51.34545997 81.50763904 -46.26650706 76.33924118 -39 72 C-36.25838827 70.83132932 -33.46412042 69.90208733 -30.625 69 C-29.84278076 68.74508789 -29.06056152 68.49017578 -28.25463867 68.22753906 C-21.75243062 66.14903418 -15.19156018 64.43164665 -8.55078125 62.859375 C-5.00691559 62.04852408 -5.00691559 62.04852408 -1.63671875 60.9140625 C3.55435469 59.60932438 8.64095628 59.64306663 13.97265625 59.609375 C19.78552599 59.44142692 23.20178125 58.3308925 28 55 C29.90332221 52.91444964 29.90332221 52.91444964 31 51 C30.01 51.33 29.02 51.66 28 52 C20.33887248 54.10335565 15.51433809 53.21134193 8.58984375 49.58203125 C6.51489779 48.31453032 4.62003341 46.99857144 2.671875 45.5546875 C-0.9214509 42.95560078 -4.62311072 41.06540478 -8.6875 39.3125 C-9.38520508 39.01142334 -10.08291016 38.71034668 -10.80175781 38.40014648 C-25.97312112 32.10538592 -43.76100054 32.10440022 -59.046875 38.21875 C-73.03245333 45.33006102 -82.64145518 56.82115217 -87.55737305 71.68701172 C-93.23065536 91.82380034 -87.83291792 113.36406493 -78.11328125 131.2734375 C-73.27704349 139.89057126 -68.17169317 148.26200592 -62 156 C-79.12351002 148.49864584 -91.94669973 126.89885541 -98.44921875 110.30078125 C-102.09724882 100.29744378 -103.22935212 92.12075605 -103.3125 81.5 C-103.34150391 80.29601562 -103.37050781 79.09203125 -103.40039062 77.8515625 C-103.47721451 66.85983693 -101.05792887 57.73757643 -96 48 C-96.598125 48.556875 -97.19625 49.11375 -97.8125 49.6875 C-105.24343205 55.07856835 -113.23202173 58.14259343 -122.375 58.1875 C-123.68210938 58.20167969 -124.98921875 58.21585938 -126.3359375 58.23046875 C-129.73798963 58.0164804 -131.96683747 57.48144811 -135 56 C-135 55.67 -135 55.34 -135 55 C-133.78376953 54.90525391 -133.78376953 54.90525391 -132.54296875 54.80859375 C-131.43566406 54.68613281 -130.32835937 54.56367188 -129.1875 54.4375 C-128.10855469 54.33308594 -127.02960938 54.22867188 -125.91796875 54.12109375 C-113.47369056 51.33435053 -104.44864848 39.83261028 -96 31.0625 C-87.79580477 22.56866065 -79.95262446 14.46211628 -70 8 C-69.2999585 7.52095215 -68.59991699 7.0419043 -67.87866211 6.54833984 C-47.68402264 -6.83824884 -22.46858917 -7.22299842 0 0 Z " fill="#1A1B1F" transform="translate(251,148)"/>
<path d="M0 0 C4.35322824 1.63377815 7.07092223 5.02142922 10.1875 8.3125 C43.00965332 41.98677952 90.76219865 60.55112147 137.46679688 61.29077148 C150.05376244 61.36957283 162.05846385 60.49016908 174.46850586 58.33520508 C175.53077393 58.15111084 176.59304199 57.9670166 177.6875 57.77734375 C178.61949219 57.60452881 179.55148437 57.43171387 180.51171875 57.25366211 C182.99316132 57.00069715 184.64860788 57.22664255 187 58 C174.23751894 63.9337166 157.86719544 63.49325553 144.07275391 63.39111328 C141.49978693 63.37499867 138.92838966 63.39110481 136.35546875 63.41015625 C120.23422208 63.43225365 104.38630128 61.56841554 88.9375 56.8125 C87.93638184 56.51061768 86.93526367 56.20873535 85.90380859 55.89770508 C52.37399088 45.50191594 23.87784536 26.55828292 0 1 C0 0.67 0 0.34 0 0 Z " fill="#0F0003" transform="translate(108,388)"/>
<path d="M0 0 C4.35322824 1.63377815 7.07092223 5.02142922 10.1875 8.3125 C23.33405362 21.80036342 38.94609897 32.97463481 56 41 C54.421875 41.73046875 54.421875 41.73046875 52 42 C49.58469203 40.87427229 47.48820575 39.72588926 45.25 38.3125 C44.59604248 37.90821777 43.94208496 37.50393555 43.26831055 37.08740234 C27.33868409 27.04592339 12.76092253 14.85655729 0 1 C0 0.67 0 0.34 0 0 Z " fill="#1A010D" transform="translate(108,388)"/>
<path d="M0 0 C2.86203648 2.71862289 5.12398793 5.46984349 7.3125 8.75 C10.17453934 12.95303825 13.27712737 16.65893106 16.8125 20.30859375 C17.204375 20.86675781 17.59625 21.42492187 18 22 C17.67 22.99 17.34 23.98 17 25 C12.31217667 23.48814979 10.44292135 19.62781033 7.9375 15.6875 C7.50373047 15.02298828 7.06996094 14.35847656 6.62304688 13.67382812 C5.40004176 11.79185222 4.1982117 9.89782115 3 8 C2.10474609 6.61748047 2.10474609 6.61748047 1.19140625 5.20703125 C0 3 0 3 0 0 Z " fill="#2C202C" transform="translate(86,355)"/>
<path d="M0 0 C0 0.66 0 1.32 0 2 C2.64 2.33 5.28 2.66 8 3 C8 3.33 8 3.66 8 4 C5.60385874 4.05425226 3.20896147 4.09379027 0.8125 4.125 C-0.19780273 4.15013672 -0.19780273 4.15013672 -1.22851562 4.17578125 C-5.28807807 4.21538674 -8.34998815 3.80020002 -12 2 C-12 1.67 -12 1.34 -12 1 C-7.915021 0.45533613 -4.1274515 0 0 0 Z " fill="#3B3D41" transform="translate(128,202)"/>
<path d="M0 0 C1.11503906 0.00322266 2.23007813 0.00644531 3.37890625 0.00976562 C4.53777344 0.01814453 5.69664062 0.02652344 6.890625 0.03515625 C8.06496094 0.03966797 9.23929688 0.04417969 10.44921875 0.04882812 C13.34640572 0.06060531 16.24348954 0.07705299 19.140625 0.09765625 C19.140625 0.42765625 19.140625 0.75765625 19.140625 1.09765625 C18.53065674 1.11747559 17.92068848 1.13729492 17.29223633 1.15771484 C14.51211967 1.25333501 11.73271654 1.3628633 8.953125 1.47265625 C7.51356445 1.5190625 7.51356445 1.5190625 6.04492188 1.56640625 C4.64790039 1.62441406 4.64790039 1.62441406 3.22265625 1.68359375 C1.94225464 1.7307251 1.94225464 1.7307251 0.63598633 1.77880859 C-1.93549896 2.00072433 -1.93549896 2.00072433 -4.4699707 3.14697266 C-7.58124087 4.38486844 -9.65213942 3.84352499 -12.859375 3.09765625 C-8.46483404 0.16796228 -5.22960207 -0.02668164 0 0 Z " fill="#818285" transform="translate(215.859375,143.90234375)"/>
<path d="M0 0 C6 7.5 6 7.5 12 15 C7.65338875 15 5.93852878 12.78218233 2.8125 9.94921875 C0.50520152 7.46787836 -0.45664424 5.33775684 -1 2 C-0.67 1.34 -0.34 0.68 0 0 Z " fill="#2E2F33" transform="translate(177,288)"/>
<path d="M0 0 C1.09731445 0.01353516 1.09731445 0.01353516 2.21679688 0.02734375 C3.99884298 0.05063847 5.78071759 0.0864981 7.5625 0.125 C7.5625 0.455 7.5625 0.785 7.5625 1.125 C2.9425 1.125 -1.6775 1.125 -6.4375 1.125 C-6.4375 1.785 -6.4375 2.445 -6.4375 3.125 C-9.25 3.75 -9.25 3.75 -12.4375 4.125 C-13.4275 3.465 -14.4175 2.805 -15.4375 2.125 C-10.12218311 0.35089949 -5.58131195 -0.1327668 0 0 Z " fill="#5B5C5F" transform="translate(261.4375,207.875)"/>
<path d="M0 0 C0.66 0.33 1.32 0.66 2 1 C0.59419724 2.65512248 -0.82506266 4.29882206 -2.25 5.9375 C-3.03890625 6.85402344 -3.8278125 7.77054688 -4.640625 8.71484375 C-6.91251033 10.91526249 -7.92319022 11.66832555 -11 12 C-7.49102731 7.81576108 -3.91939465 3.80411834 0 0 Z " fill="#383A3E" transform="translate(170,164)"/>
<path d="M0 0 C0.99 0 1.98 0 3 0 C3 3.63 3 7.26 3 11 C2.34 11 1.68 11 1 11 C-0.28317892 7.15046324 -0.06643637 4.05261865 0 0 Z " fill="#2B2D30" transform="translate(195,244)"/>
<path d="M0 0 C3.67033927 3.27708863 5.69281189 6.71522208 8 11 C7.34 11.66 6.68 12.32 6 13 C4.99193149 11.40089132 3.99379615 9.79551738 3 8.1875 C2.443125 7.29417969 1.88625 6.40085937 1.3125 5.48046875 C0 3 0 3 0 0 Z " fill="#826776" transform="translate(86,355)"/>
<path d="M0 0 C-3.44450737 2.29633824 -5.93812283 2.54016485 -10 3 C-10.33 2.34 -10.66 1.68 -11 1 C-6.87831311 -0.62950412 -4.29299643 -1.26264601 0 0 Z " fill="#383A3E" transform="translate(205,148)"/>
<path d="M0 0 C2.93200474 2.85276137 5.64315404 5.65079784 8 9 C5.04709864 7.62901008 2.39580248 6.22467373 0 4 C0 2.68 0 1.36 0 0 Z " fill="#35363A" transform="translate(181,295)"/>
<path d="M0 0 C2.5625 2.25 2.5625 2.25 5 5 C4.8125 7.3125 4.8125 7.3125 4 9 C0 3.375 0 3.375 0 0 Z " fill="#4A3044" transform="translate(93,366)"/>
<path d="M0 0 C0.33 0.66 0.66 1.32 1 2 C0.38125 2.0825 -0.2375 2.165 -0.875 2.25 C-3.18437567 2.81258459 -3.18437567 2.81258459 -4.25 5.0625 C-4.4975 5.701875 -4.745 6.34125 -5 7 C-6.32 6.67 -7.64 6.34 -9 6 C-6.03 4.02 -3.06 2.04 0 0 Z " fill="#38393E" transform="translate(183,155)"/>
<path d="M0 0 C1.8871875 0.0309375 1.8871875 0.0309375 3.8125 0.0625 C0.86179881 2.02963413 -0.72331611 2.71608161 -4.1875 3.0625 C-5.1775 2.4025 -6.1675 1.7425 -7.1875 1.0625 C-4.43671116 0.14557039 -2.82801087 -0.04636083 0 0 Z " fill="#515357" transform="translate(210.1875,144.9375)"/>
<path d="M0 0 C3 1 3 1 4.6875 4.0625 C5.120625 5.031875 5.55375 6.00125 6 7 C5.01 7 4.02 7 3 7 C2.01 4.69 1.02 2.38 0 0 Z " fill="#D4ADC2" transform="translate(81,348)"/>
</svg>
